# xmcd CD database file
#
# Track frame offsets:
#	150
#	32768
#	56781
#	82926
#	127597
#	144447
#	157293
#	196917
#
# Disc length: 3381 seconds
#
# Revision: 0
# Processed by: cddbd v1.5.2PL0 Copyright (c) Steve Scherf et al.
# Submitted via: CDex 1.51
#
DISCID=640d3308
DTITLE=Chris Spheeris - Maya (And The Eight Illusions)
DYEAR=2012
DGENRE=New Age
TTITLE0=Ghali
TTITLE1=Lanilei
TTITLE2=Sadoor
TTITLE3=Narabi
TTITLE4=Kradeesh
TTITLE5=Soulana
TTITLE6=Bata
TTITLE7=Shasti
EXTD=YEAR: 2012
EXTT0=
EXTT1=
EXTT2=
EXTT3=
EXTT4=
EXTT5=
EXTT6=
EXTT7=
PLAYORDER=
